<?xml version="1.0" encoding="UTF-8"?>
<svg version="1.1" xmlns="http://www.w3.org/2000/svg" width="550" height="370">
<path d="M0 0 C181.5 0 363 0 550 0 C550 122.1 550 244.2 550 370 C368.5 370 187 370 0 370 C0 247.9 0 125.8 0 0 Z " fill="#F6F6F7" transform="translate(0,0)"/>
<path d="M0 0 C53.13 0 106.26 0 161 0 C159.76214543 16.71103672 158.47013963 33.37740623 156.88400269 50.05343628 C156.32463337 55.94122968 155.77531743 61.82995913 155.2265625 67.71875 C155.06470711 69.45504921 155.06470711 69.45504921 154.89958191 71.22642517 C153.70378172 84.1081794 152.63362681 96.99901793 151.58435059 109.89335632 C150.69003505 120.84804321 149.74694877 131.79867993 148.8125 142.75 C148.63141271 144.87426619 148.45034131 146.99853373 148.26928711 149.12280273 C147.84653334 154.08189771 147.42338798 159.04095913 147 164 C134.53126288 168.0243888 122.01681383 171.74788766 109.375 175.1875 C106.27781647 176.03215728 103.18159752 176.88024638 100.0859375 177.73046875 C98.99681061 178.02689774 98.99681061 178.02689774 97.88568115 178.32931519 C93.50736144 179.53436723 89.23986132 180.87723017 85.04150391 182.6105957 C79.27421598 183.71067036 73.05492668 181.30245755 67.5234375 179.70703125 C66.72348358 179.48024185 65.92352966 179.25345245 65.09933472 179.01979065 C62.52330192 178.28835555 59.94914603 177.5505448 57.375 176.8125 C55.60916065 176.30966802 53.84320978 175.80722751 52.07714844 175.30517578 C47.80606975 174.0899896 43.53642509 172.86985374 39.26721191 171.64813232 C36.13489618 170.75269107 33.00111454 169.86243956 29.8671875 168.97265625 C16.61949663 165.20649888 16.61949663 165.20649888 13 164 C12.95654953 163.38201538 12.91309906 162.76403076 12.86833191 162.12731934 C12.40192079 155.50431928 11.93019567 148.88171089 11.45581055 142.25927734 C11.2810324 139.81047482 11.10746853 137.36158523 10.93530273 134.91259766 C9.91099018 120.35594473 8.73440106 105.82628081 7.33460426 91.30074501 C5.84821709 75.83295186 4.67621006 60.34529714 3.53448486 44.84881592 C3.10630242 39.046149 2.67244776 33.2439028 2.23897171 27.44162941 C2.09118865 25.45723012 1.94490447 23.47271938 1.79867554 21.48820496 C1.66315781 19.66232597 1.66315781 19.66232597 1.52490234 17.79956055 C1.44734711 16.74802292 1.36979187 15.69648529 1.28988647 14.61308289 C0.89880917 9.73877923 0.44271681 4.86988495 0 0 Z " fill="#1C73B7" transform="translate(40,115)"/>
<path d="M0 0 C4.43707824 4.58640299 5.86517157 9.0988266 6.1875 15.4296875 C5.7520521 26.58277243 0.32908694 35.85309741 -7.375 43.6796875 C-18.80680798 53.83905042 -33.27268216 57.82527831 -48.25 57.9921875 C-49.53970703 58.03569336 -49.53970703 58.03569336 -50.85546875 58.08007812 C-58.1218593 58.15174966 -63.14042403 56.25076071 -68.8125 51.7421875 C-70.60560179 49.37529314 -71.04979823 47.60650344 -71.375 44.6796875 C-70.715 44.6796875 -70.055 44.6796875 -69.375 44.6796875 C-68.9625 45.1128125 -68.55 45.5459375 -68.125 45.9921875 C-63.1142891 50.82394444 -57.57566151 51.25820498 -50.90771484 51.23486328 C-39.83355917 50.85144038 -29.55624003 45.93741703 -20.390625 39.9765625 C-18.375 38.6796875 -18.375 38.6796875 -16.234375 37.7578125 C-13.86851478 36.3860112 -13.45787103 35.15995641 -12.375 32.6796875 C-10.85720055 30.39292335 -9.28926136 28.14650568 -7.71484375 25.8984375 C-5.15381291 21.65743017 -4.94457283 17.5865572 -5.375 12.6796875 C-7.97338637 8.10652748 -11.44005689 6.13170944 -16.375 4.6796875 C-19.86260006 4.21032019 -23.29657984 4.15527774 -26.8125 4.1796875 C-28.27175903 4.18935547 -28.27175903 4.18935547 -29.76049805 4.19921875 C-38.69097001 4.4226827 -46.18432409 6.23119767 -54.375 9.6796875 C-55.05868652 9.95844727 -55.74237305 10.23720703 -56.44677734 10.52441406 C-72.74607269 17.2805599 -91.93005309 27.42088553 -99.53125 44.1640625 C-101.33438222 49.54006783 -100.91357626 53.87387298 -99.3125 59.2421875 C-94.1240046 68.44758257 -86.17162638 74.19579221 -77.88525391 80.44335938 C-76.375 81.6796875 -76.375 81.6796875 -74.26171875 84.0703125 C-72.50250935 85.92204389 -72.50250935 85.92204389 -70.12109375 85.6875 C-66.35517767 84.30541415 -62.92771795 82.52358009 -59.4375 80.5546875 C-58.35855469 79.9500769 -58.35855469 79.9500769 -57.2578125 79.33325195 C-52.86364154 76.78291947 -49.66907661 74.32616151 -46.65234375 70.19140625 C-44.19121404 67.27869311 -40.99471751 65.73282304 -37.375 64.6796875 C-33.5 64.7421875 -33.5 64.7421875 -30.375 65.6796875 C-28.07866176 69.12419487 -27.83483515 71.61781033 -27.375 75.6796875 C-26.735625 75.8240625 -26.09625 75.9684375 -25.4375 76.1171875 C-23.375 76.6796875 -23.375 76.6796875 -22.375 77.6796875 C-22.82219746 83.60505378 -24.18615613 89.12424312 -25.75390625 94.84765625 C-26.35164933 97.57321431 -26.42137993 99.90418394 -26.375 102.6796875 C-22.0098257 94.15121359 -17.98683014 85.50893004 -14.125 76.7421875 C-13.59648437 75.55044922 -13.06796875 74.35871094 -12.5234375 73.13085938 C-9.81001466 67.03722431 -9.81001466 67.03722431 -7.27441406 60.86889648 C-6.375 58.6796875 -6.375 58.6796875 -5.375 57.6796875 C-3.85571962 57.60788786 -2.33332518 57.59576743 -0.8125 57.6171875 C0.42693359 57.63072266 0.42693359 57.63072266 1.69140625 57.64453125 C2.64853516 57.66193359 2.64853516 57.66193359 3.625 57.6796875 C4.63069318 60.80851071 4.47895943 62.55045262 3.625 65.6796875 C3.5332529 67.49034341 3.49497095 69.30421561 3.5 71.1171875 C3.49742187 72.04402344 3.49484375 72.97085938 3.4921875 73.92578125 C3.62155948 76.60834731 4.02717166 79.06537468 4.625 81.6796875 C5.285 81.6796875 5.945 81.6796875 6.625 81.6796875 C6.87378906 80.85339844 7.12257813 80.02710938 7.37890625 79.17578125 C8.8056345 75.17289164 10.61823867 71.51298424 12.5625 67.7421875 C15.10489222 62.78475851 17.4849031 57.82531234 19.625 52.6796875 C21.08236087 52.48477298 22.54094593 52.29899392 24 52.1171875 C25.21816406 51.96056641 25.21816406 51.96056641 26.4609375 51.80078125 C28.625 51.6796875 28.625 51.6796875 30.625 52.6796875 C30.46515625 53.535625 30.3053125 54.3915625 30.140625 55.2734375 C28.98236586 62.92496755 28.08577674 71.05998691 32.625 77.6796875 C33.27984375 77.463125 33.9346875 77.2465625 34.609375 77.0234375 C44.98087657 73.85925058 54.57345125 73.21664462 64.625 77.6796875 C65.25148438 77.93492187 65.87796875 78.19015625 66.5234375 78.453125 C71.93449159 81.02869223 75.07296254 85.34031835 77.625 90.6796875 C78.42272679 95.90922979 77.47794525 99.2527035 74.625 103.6796875 C72.125 106.1171875 72.125 106.1171875 69.625 107.6796875 C68.635 107.3496875 67.645 107.0196875 66.625 106.6796875 C67.45 106.0609375 68.275 105.4421875 69.125 104.8046875 C71.67568693 102.25400057 72.09003445 100.25225155 72.25 96.6796875 C72.04658171 93.0716894 71.74575538 91.85327336 69.625 88.8046875 C61.86180914 83.30576064 56.16234573 82.11933582 46.625 82.4296875 C45.56410156 82.44773437 44.50320313 82.46578125 43.41015625 82.484375 C40.8141428 82.53115002 38.22006472 82.59667608 35.625 82.6796875 C35.71386475 83.42879395 35.80272949 84.17790039 35.89428711 84.94970703 C36.0000708 85.93567871 36.10585449 86.92165039 36.21484375 87.9375 C36.37907837 89.40147217 36.37907837 89.40147217 36.54663086 90.89501953 C36.64342536 94.33439043 36.00397038 96.39149682 34.046875 99.1796875 C29.23258246 104.25850161 24.21873519 106.20507905 17.3125 106.63671875 C16.755625 106.65089844 16.19875 106.66507812 15.625 106.6796875 C13.51758446 103.51856419 13.30777972 102.37290128 13.9453125 98.71875 C15.52782918 93.97119997 18.72134222 89.49186516 22.33203125 86.0546875 C22.75871094 85.6009375 23.18539062 85.1471875 23.625 84.6796875 C23.37428982 81.6711653 22.42629369 79.01343694 21.5625 76.1171875 C20.625 72.6796875 20.625 72.6796875 20.625 68.6796875 C19.965 68.6796875 19.305 68.6796875 18.625 68.6796875 C18.54507813 69.37320313 18.46515625 70.06671875 18.3828125 70.78125 C17.12818517 75.57987618 14.03321634 79.28161606 11.2421875 83.328125 C9.28298732 87.38849639 9.63807025 89.35238011 10.625 93.6796875 C11.06725281 97.80496367 10.92958446 101.00430456 9.1875 104.8671875 C5.06372481 109.39328222 0.79724439 112.35673994 -5.40625 112.98828125 C-8.08243775 112.99172995 -10.70896157 112.90393372 -13.375 112.6796875 C-14.20703125 110.5859375 -14.20703125 110.5859375 -14.375 107.6796875 C-12.67629335 105.2843036 -11.058138 103.29560381 -9.0625 101.1796875 C-4.12063909 96.08014237 -4.12063909 96.08014237 -1.375 89.6796875 C-1.98959727 87.12357586 -1.98959727 87.12357586 -3.25 84.6796875 C-4.93000823 81.11940516 -5.61491641 78.63125182 -5.375 74.6796875 C-6.035 74.6796875 -6.695 74.6796875 -7.375 74.6796875 C-7.53693848 75.97144897 -7.53693848 75.97144897 -7.70214844 77.28930664 C-8.41262321 80.86926423 -9.56071833 83.64133082 -11.140625 86.92578125 C-11.98173828 88.67665039 -11.98173828 88.67665039 -12.83984375 90.46289062 C-13.13358887 91.06367432 -13.42733398 91.66445801 -13.72998047 92.28344727 C-14.61851675 94.10390443 -15.49167067 95.93115517 -16.36328125 97.75976562 C-22.17929276 109.76936571 -22.17929276 109.76936571 -26.375 114.6796875 C-30.1875 115.6171875 -30.1875 115.6171875 -33.375 115.6796875 C-36.23325008 112.44862219 -36.77990107 109.89737892 -37.375 105.6796875 C-37.77332031 106.45054687 -38.17164063 107.22140625 -38.58203125 108.015625 C-39.11183594 109.01851563 -39.64164062 110.02140625 -40.1875 111.0546875 C-40.70957031 112.05242187 -41.23164063 113.05015625 -41.76953125 114.078125 C-43.375 116.6796875 -43.375 116.6796875 -46.375 118.6796875 C-49.3125 119.1171875 -49.3125 119.1171875 -52.375 118.6796875 C-56.9817368 114.46781385 -59.05705799 108.87199712 -59.6640625 102.77734375 C-59.84235951 96.35054705 -59.06696191 91.51227164 -56.375 85.6796875 C-59.675 87.6596875 -62.975 89.6396875 -66.375 91.6796875 C-66.045 92.9996875 -65.715 94.3196875 -65.375 95.6796875 C-64.56641435 107.68917273 -65.19220737 116.91977992 -73.125 126.5546875 C-76.81261735 130.44107976 -80.3943046 132.78576761 -85.375 134.6796875 C-86.798125 135.2984375 -86.798125 135.2984375 -88.25 135.9296875 C-94.16432166 137.3491247 -99.32922231 137.6660446 -104.875 134.9921875 C-108.11101487 131.99887375 -109.12957515 129.40799513 -109.74609375 125.06640625 C-109.94726174 116.8895192 -108.0555019 112.57443899 -102.49609375 106.69140625 C-96.25873478 100.77567905 -87.02594454 93.16689588 -78.375 91.6796875 C-78.375 91.0196875 -78.375 90.3596875 -78.375 89.6796875 C-79.08398438 89.43347656 -79.79296875 89.18726563 -80.5234375 88.93359375 C-85.47533965 86.75611349 -89.5468791 83.22809293 -93.78759766 79.91748047 C-95.30270264 78.73606209 -96.82883574 77.56882742 -98.35546875 76.40234375 C-106.0910357 70.33125742 -113.63480897 63.44161804 -116.375 53.6796875 C-117.40434382 44.01432351 -111.8949138 35.32115965 -106.06445312 28.04394531 C-84.62199123 3.23283266 -29.74288363 -24.90966504 0 0 Z " fill="#C86E9A" transform="translate(440.375,120.3203125)"/>
<path d="M0 0 C33.66 0 67.32 0 102 0 C102 6.6 102 13.2 102 20 C92.50613881 24.48115631 82.94896117 28.51951887 73.1875 32.375 C66.1646875 35.159375 66.1646875 35.159375 59 38 C78.305 38.495 78.305 38.495 98 39 C97.41882792 48.29875329 96.8351513 57.56722819 96.02734375 66.84375 C95.8962899 68.37461243 95.8962899 68.37461243 95.7625885 69.93640137 C95.4892796 73.12441827 95.21344561 76.31221036 94.9375 79.5 C94.74917981 81.69139172 94.5610276 83.88279788 94.37304688 86.07421875 C93.9172977 91.38298027 93.45948821 96.69156086 93 102 C89.52995499 103.1041889 86.05990017 104.20834696 82.58984375 105.3125 C81.6196228 105.62123047 80.64940186 105.92996094 79.64978027 106.24804688 C73.6210006 108.16635232 67.59195416 110.0838156 61.5625 112 C60.90084839 112.21857666 60.23919678 112.43715332 59.55749512 112.66235352 C52.74410161 114.73841379 47.19847988 113.18705696 40.5625 111.1875 C33.97717335 109.25270852 27.358673 107.55781924 20.69140625 105.9296875 C17.10084192 105.02539723 13.55405158 104.0364073 10 103 C7.77304227 92.36249319 7.43960954 81.84370201 7 71 C13.6 71 20.2 71 27 71 C27.66 76.28 28.32 81.56 29 87 C31.64 87.33 34.28 87.66 37 88 C38.65025281 88.33296706 40.29710399 88.68394707 41.9375 89.0625 C51.01896086 90.87879217 58.77098075 89.6136042 67.7421875 87.65625 C71 87 71 87 74 87 C73.97679687 86.30777344 73.95359375 85.61554688 73.9296875 84.90234375 C73.76911969 76.19727436 74.81511521 68.88663589 76 60 C52.9 60 29.8 60 6 60 C3.75 45.375 3.75 45.375 4 40 C18.95178792 33.54826575 33.96041772 27.24450492 49 21 C33.49 20.67 17.98 20.34 2 20 C0 5 0 5 0 0 Z " fill="#F9FDFE" transform="translate(69,149)"/>
<path d="M0 0 C21.78 0 43.56 0 66 0 C65.03468713 17.9387309 63.82160509 35.75664742 62 53.625 C60.63475264 67.01777389 59.50387851 80.37464555 58.72314453 93.81518555 C57.87979908 107.9144565 56.45412798 121.95265743 55 136 C53.64455078 136.29003906 53.64455078 136.29003906 52.26171875 136.5859375 C51.08222656 136.84632813 49.90273437 137.10671875 48.6875 137.375 C47.51574219 137.63023437 46.34398437 137.88546875 45.13671875 138.1484375 C41.87079555 138.85695531 41.87079555 138.85695531 39 141 C36.37231134 141.57308234 33.74221478 141.94785676 31.08203125 142.33984375 C27.92627002 143.01579261 25.12842501 144.02818795 22.13012695 145.19555664 C18.53526535 146.55315767 14.86833489 147.65192216 11.1875 148.75 C10.43791016 148.98332031 9.68832031 149.21664062 8.91601562 149.45703125 C3.35271172 151.11757057 3.35271172 151.11757057 0 150 C0 144.06 0 138.12 0 132 C8.9876618 128.68875618 17.98046271 125.74902993 27.1875 123.11328125 C29.55996121 122.42050313 31.9187925 121.67643485 34.25 120.85546875 C37 120 37 120 41 120 C40.9902565 119.32974792 40.980513 118.65949585 40.97047424 117.96893311 C40.91638916 111.36990638 41.22799917 104.89629645 41.83984375 98.328125 C41.92625626 97.36146912 42.01266876 96.39481323 42.10169983 95.39886475 C42.28352501 93.3752403 42.46766615 91.35182269 42.65405273 89.32861328 C42.93802788 86.24426656 43.21473402 83.15933291 43.49023438 80.07421875 C43.66884924 78.09631605 43.84787152 76.11845009 44.02734375 74.140625 C44.1508445 72.77009979 44.1508445 72.77009979 44.27684021 71.37188721 C44.39685143 70.07453644 44.39685143 70.07453644 44.51928711 68.75097656 C44.58812607 68.00027893 44.65696503 67.2495813 44.72789001 66.47613525 C45.07602838 63.30816008 45.54928353 60.15501532 46 57 C32.47 57 18.94 57 5 57 C8.64567292 54.26574531 11.41797807 52.86992465 15.6015625 51.22265625 C16.23806732 50.97003525 16.87457214 50.71741425 17.53036499 50.45713806 C19.55970143 49.65319682 21.59222198 48.8576934 23.625 48.0625 C24.96767044 47.5324644 26.31012059 47.00187037 27.65234375 46.47070312 C30.24266642 45.44643613 32.83414566 44.42519568 35.42675781 43.40673828 C39.95854621 41.62263301 44.48013368 39.81406627 49 38 C49 31.4 49 24.8 49 18 C24.745 17.505 24.745 17.505 0 17 C0 11.39 0 5.78 0 0 Z " fill="#1D87C6" transform="translate(121,131)"/>
<path d="M0 0 C12.93450469 -3.29703061 27.39559226 -5.44323335 40 0 C49.85905586 6.35842393 58.01116054 14.98912079 66 23.5 C66.52777668 24.0620174 67.05555336 24.62403481 67.59932327 25.20308304 C74.24674375 32.31423223 80.69908397 39.57972207 87 47 C86.17733643 47.95592041 85.35467285 48.91184082 84.50708008 49.89672852 C82.04676113 52.76249833 79.62152209 55.65493131 77.20581055 58.55834961 C45.72956226 95.99690713 45.72956226 95.99690713 28.171875 97.6953125 C18.36574377 98.22094482 8.58755262 97.00382933 -1 95 C2.11741333 91.25508488 5.14504626 87.64938095 8.9375 84.5625 C12.37130697 81.64995405 15.22685092 78.50556748 18.12890625 75.07373047 C19.8767722 73.13657319 21.66326693 71.47659036 23.65234375 69.79296875 C28.28321059 65.7917888 32.69455625 61.59767479 37.0625 57.3125 C37.84560547 56.56677734 38.62871094 55.82105469 39.43554688 55.05273438 C40.16966797 54.33021484 40.90378906 53.60769531 41.66015625 52.86328125 C42.32668213 52.21657471 42.99320801 51.56986816 43.67993164 50.90356445 C45.20835549 49.13185459 45.20835549 49.13185459 44.84204102 47.16085815 C43.71421939 44.26662555 42.05682658 42.70468582 39.84741211 40.52270508 C38.96657455 39.64532181 38.085737 38.76793854 37.1782074 37.8639679 C36.21133762 36.9157359 35.24438101 35.96759244 34.27734375 35.01953125 C33.29155801 34.04188254 32.306506 33.06349348 31.32215881 32.08439636 C28.73270165 29.51204296 26.13480132 26.94839604 23.53460693 24.38690186 C19.36680943 20.27835535 15.2117092 16.15697554 11.05706978 12.03513145 C9.60167232 10.59374594 8.14255585 9.15620923 6.68284607 7.7191925 C5.80516068 6.85126572 4.92747528 5.98333893 4.02319336 5.08911133 C3.24455429 4.32174149 2.46591522 3.55437164 1.66368103 2.76374817 C0 1 0 1 0 0 Z " fill="#9371A8" transform="translate(229,160)"/>
<path d="M0 0 C4.43707824 4.58640299 5.86517157 9.0988266 6.1875 15.4296875 C5.7520521 26.58277243 0.32908694 35.85309741 -7.375 43.6796875 C-18.80680798 53.83905042 -33.27268216 57.82527831 -48.25 57.9921875 C-49.53970703 58.03569336 -49.53970703 58.03569336 -50.85546875 58.08007812 C-58.1218593 58.15174966 -63.14042403 56.25076071 -68.8125 51.7421875 C-70.60560179 49.37529314 -71.04979823 47.60650344 -71.375 44.6796875 C-70.715 44.6796875 -70.055 44.6796875 -69.375 44.6796875 C-68.9625 45.1128125 -68.55 45.5459375 -68.125 45.9921875 C-63.1142891 50.82394444 -57.57566151 51.25820498 -50.90771484 51.23486328 C-39.83355917 50.85144038 -29.55624003 45.93741703 -20.390625 39.9765625 C-18.375 38.6796875 -18.375 38.6796875 -16.234375 37.7578125 C-13.86851478 36.3860112 -13.45787103 35.15995641 -12.375 32.6796875 C-10.85720055 30.39292335 -9.28926136 28.14650568 -7.71484375 25.8984375 C-5.15381291 21.65743017 -4.94457283 17.5865572 -5.375 12.6796875 C-7.97338637 8.10652748 -11.44005689 6.13170944 -16.375 4.6796875 C-19.86260006 4.21032019 -23.29657984 4.15527774 -26.8125 4.1796875 C-28.27175903 4.18935547 -28.27175903 4.18935547 -29.76049805 4.19921875 C-38.69097001 4.4226827 -46.18432409 6.23119767 -54.375 9.6796875 C-55.05868652 9.95844727 -55.74237305 10.23720703 -56.44677734 10.52441406 C-72.74607269 17.2805599 -91.93005309 27.42088553 -99.53125 44.1640625 C-101.33438222 49.54006783 -100.91357626 53.87387298 -99.3125 59.2421875 C-94.46483867 67.84287695 -87.32050354 73.29637096 -79.58203125 79.1640625 C-76.9686536 81.16168335 -74.6797887 83.32890524 -72.375 85.6796875 C-71.385 86.3396875 -70.395 86.9996875 -69.375 87.6796875 C-71.25 88.7421875 -71.25 88.7421875 -73.375 89.6796875 C-74.365 89.1846875 -74.365 89.1846875 -75.375 88.6796875 C-76.365 89.6696875 -77.355 90.6596875 -78.375 91.6796875 C-78.375 91.0196875 -78.375 90.3596875 -78.375 89.6796875 C-79.08398438 89.43347656 -79.79296875 89.18726563 -80.5234375 88.93359375 C-85.47533965 86.75611349 -89.5468791 83.22809293 -93.78759766 79.91748047 C-95.30270264 78.73606209 -96.82883574 77.56882742 -98.35546875 76.40234375 C-106.0910357 70.33125742 -113.63480897 63.44161804 -116.375 53.6796875 C-117.40434382 44.01432351 -111.8949138 35.32115965 -106.06445312 28.04394531 C-84.62199123 3.23283266 -29.74288363 -24.90966504 0 0 Z " fill="#C96C99" transform="translate(440.375,120.3203125)"/>
<path d="M0 0 C2.02350324 3.03525486 2.32124018 4.19426202 2.625 7.6875 C2.73714844 8.89986328 2.73714844 8.89986328 2.8515625 10.13671875 C2.90054688 10.75160156 2.94953125 11.36648437 3 12 C1.68 11.67 0.36 11.34 -1 11 C-1.66 12.32 -2.32 13.64 -3 15 C-3.66 15 -4.32 15 -5 15 C-5.17015625 15.67804688 -5.3403125 16.35609375 -5.515625 17.0546875 C-6.77348684 21.88541223 -8.12960115 26.48182163 -10.125 31.0625 C-12.19851915 35.99304362 -12.77385082 40.68549416 -13 46 C-12.34 46 -11.68 46 -11 46 C-12.24976756 49.65316671 -12.67098753 50.78065836 -16 53 C-18.9375 53.4375 -18.9375 53.4375 -22 53 C-26.6067368 48.78812635 -28.68205799 43.19230962 -29.2890625 37.09765625 C-29.46735951 30.67085955 -28.69196191 25.83258414 -26 20 C-29.3 21.98 -32.6 23.96 -36 26 C-35.505 27.98 -35.505 27.98 -35 30 C-34.19141435 42.00948523 -34.81720737 51.24009242 -42.75 60.875 C-46.43761735 64.76139226 -50.0193046 67.10608011 -55 69 C-55.94875 69.4125 -56.8975 69.825 -57.875 70.25 C-63.78932166 71.6694372 -68.95422231 71.9863571 -74.5 69.3125 C-77.73601487 66.31918625 -78.75457515 63.72830763 -79.37109375 59.38671875 C-79.57226174 51.2098317 -77.6805019 46.89475149 -72.12109375 41.01171875 C-64.8947487 34.15800291 -56.24567644 28.66554252 -47 25 C-46.484375 24.46375 -45.96875 23.9275 -45.4375 23.375 C-44 22 -44 22 -40 22 C-38.43191435 20.63482571 -38.43191435 20.63482571 -37 19 C-35.28588867 17.94433594 -35.28588867 17.94433594 -33.41796875 16.984375 C-32.73605469 16.6236792 -32.05414063 16.2629834 -31.3515625 15.89135742 C-30.63742187 15.51470947 -29.92328125 15.13806152 -29.1875 14.75 C-23.91239491 11.89595808 -19.8585252 9.42011121 -16.27734375 4.51171875 C-11.996954 -0.55406362 -6.2219488 -1.86658464 0 0 Z " fill="#C86D9A" transform="translate(410,186)"/>
<path d="M0 0 C8.25 0 16.5 0 25 0 C25 3.63 25 7.26 25 11 C22.69 11.33 20.38 11.66 18 12 C18.5053125 12.53367187 19.010625 13.06734375 19.53125 13.6171875 C20.1809375 14.36226562 20.830625 15.10734375 21.5 15.875 C22.1496875 16.59429687 22.799375 17.31359375 23.46875 18.0546875 C25 21 25 21 25 31 C16.75 31 8.5 31 0 31 C0 27.7 0 24.4 0 21 C2.64 21 5.28 21 8 21 C7.4225 20.23816406 6.845 19.47632812 6.25 18.69140625 C5.13625 17.14259766 5.13625 17.14259766 4 15.5625 C3.2575 14.55316406 2.515 13.54382813 1.75 12.50390625 C0 9 0 9 0 0 Z " fill="#0C0C0C" transform="translate(143,72)"/>
<path d="M0 0 C8.25 0 16.5 0 25 0 C25 3.63 25 7.26 25 11 C22.69 11.33 20.38 11.66 18 12 C18.5053125 12.53367187 19.010625 13.06734375 19.53125 13.6171875 C20.1809375 14.36226562 20.830625 15.10734375 21.5 15.875 C22.1496875 16.59429687 22.799375 17.31359375 23.46875 18.0546875 C25 21 25 21 25 31 C17.08 31 9.16 31 1 31 C1 27.7 1 24.4 1 21 C4.465 20.505 4.465 20.505 8 20 C7.4225 19.31035156 6.845 18.62070313 6.25 17.91015625 C5.5075 16.97042969 4.765 16.03070313 4 15.0625 C3.2575 14.14597656 2.515 13.22945312 1.75 12.28515625 C0 9 0 9 0 0 Z " fill="#070707" transform="translate(108,72)"/>
<path d="M0 0 C7.59 0 15.18 0 23 0 C23.0874478 8.7447801 22.89225443 17.30051926 22 26 C6.85148515 30.71287129 6.85148515 30.71287129 0 29 C0 19.43 0 9.86 0 0 Z " fill="#1E88C5" transform="translate(121,210)"/>
<path d="M0 0 C4.34163015 -0.0247636 8.6832226 -0.04289015 13.02490234 -0.05493164 C14.50114661 -0.05995288 15.97738592 -0.06677116 17.45361328 -0.07543945 C19.57846298 -0.08760189 21.70324678 -0.09325046 23.828125 -0.09765625 C25.1059082 -0.10289307 26.38369141 -0.10812988 27.70019531 -0.11352539 C30.3620936 -0.02194632 32.48309582 0.19891486 35 1 C35.7752281 4.79000403 35.9595212 7.30258031 35 11 C34.93381377 12.33315607 34.91446485 13.66930702 34.9375 15.00390625 C34.94910156 16.11475586 34.94910156 16.11475586 34.9609375 17.24804688 C34.97382813 18.01181641 34.98671875 18.77558594 35 19.5625 C35.13489209 27.59532374 35.13489209 27.59532374 34 31 C28.46763333 30.73416493 25.80671811 27.33718969 22.16796875 23.59375 C21.53135818 22.95385132 20.89474762 22.31395264 20.23884583 21.65466309 C18.89877418 20.30418685 17.56347236 18.94896297 16.23266602 17.58935547 C14.18639195 15.49886801 12.12692277 13.42215554 10.06445312 11.34765625 C8.76484282 10.03462789 7.46598774 8.72085151 6.16796875 7.40625 C5.54931442 6.78020874 4.9306601 6.15416748 4.29325867 5.50915527 C0 1.11827293 0 1.11827293 0 0 Z " fill="#3183C0" transform="translate(229,160)"/>
<path d="M0 0 C8.25 0 16.5 0 25 0 C25 3.3 25 6.6 25 10 C20.05 10 15.1 10 10 10 C10 13.63 10 17.26 10 21 C14.95 21 19.9 21 25 21 C25 24.3 25 27.6 25 31 C16.75 31 8.5 31 0 31 C0 20.77 0 10.54 0 0 Z " fill="#060606" transform="translate(73,72)"/>
<path d="M0 0 C2.54406562 2.54406562 2.32580106 3.59251606 2.375 7.125 C2.23623375 14.19282776 0.14591888 18.58584125 -4.5 23.8125 C-8.922382 27.68208425 -12.65139474 30.68850184 -18.6875 31.25 C-21 31 -21 31 -23 29 C-23.81914744 25.20356665 -23.66267541 21.57157425 -22.1484375 17.98046875 C-16.90838704 10.08824551 -7.7263224 5.1508816 0 0 Z " fill="#F0EBEF" transform="translate(366,215)"/>
<path d="M0 0 C21.10490368 -0.02332704 42.20980525 -0.04097821 63.3147192 -0.05181217 C73.11338163 -0.05697554 82.91203606 -0.06401902 92.71069336 -0.07543945 C101.24798655 -0.08538503 109.78527395 -0.09185313 118.32257277 -0.09408849 C122.84589928 -0.09539582 127.36920922 -0.09848302 131.89253044 -0.10573006 C136.14497932 -0.11248829 140.39740473 -0.11461737 144.64985847 -0.11310768 C146.21523287 -0.1133841 147.78060801 -0.11539039 149.34597778 -0.11920547 C151.47388093 -0.12413967 153.60169401 -0.12299933 155.729599 -0.12025452 C156.92332091 -0.12117631 158.11704283 -0.1220981 159.34693813 -0.12304783 C162 0 162 0 163 1 C162.71917202 3.34023315 162.37531446 5.67305036 162 8 C161.814375 9.299375 161.62875 10.59875 161.4375 11.9375 C161.293125 12.948125 161.14875 13.95875 161 15 C160.67 15 160.34 15 160 15 C159.92027988 10.2965127 160.06508817 6.67455917 161 2 C107.87 2 54.74 2 0 2 C0 1.34 0 0.68 0 0 Z " fill="#BEDEF4" transform="translate(40,113)"/>
<path d="M0 0 C-1.0181575 6.90084528 -2.99727161 13.21735894 -5.375 19.75 C-5.66705322 20.56573486 -5.95910645 21.38146973 -6.26000977 22.22192383 C-8.02304475 26.95968671 -10.01158563 30.91890548 -13 35 C-15 34 -15 34 -16 31 C-16.96681061 20.69974851 -13.9720338 11.4251355 -8 3 C-4.97752251 0.218579 -4.31813445 0 0 0 Z " fill="#F5EBF4" transform="translate(407,193)"/>
<path d="M0 0 C33.66 0 67.32 0 102 0 C102 6.6 102 13.2 102 20 C100.35 20.66 98.7 21.32 97 22 C97 21.34 97 20.68 97 20 C97.99 20 98.98 20 100 20 C100 14.06 100 8.12 100 2 C67.66 2 35.32 2 2 2 C2 5.3 2 8.6 2 12 C1.67 12 1.34 12 1 12 C0.67 8.04 0.34 4.08 0 0 Z " fill="#C1E7F8" transform="translate(69,149)"/>
<path d="M0 0 C0.66 0 1.32 0 2 0 C2.64715133 2.0829243 3.29267166 4.16635539 3.9375 6.25 C4.29714844 7.41015625 4.65679687 8.5703125 5.02734375 9.765625 C5.34832031 10.83296875 5.66929687 11.9003125 6 13 C6.23267578 13.66 6.46535156 14.32 6.70507812 15 C7 17 7 17 4.69140625 20.234375 C3.66118281 21.4174703 2.617586 22.58902267 1.5625 23.75 C1.03333984 24.35199219 0.50417969 24.95398438 -0.04101562 25.57421875 C-1.34943866 27.05945571 -2.67329421 28.53107134 -4 30 C-5.32 28.68 -6.64 27.36 -8 26 C-8.33 26.99 -8.66 27.98 -9 29 C-9.99 29 -10.98 29 -12 29 C-10.21575103 23.12684714 -7.59199512 17.78204792 -4.921875 12.27734375 C-2.98862803 8.24493682 -1.30392073 4.29207239 0 0 Z " fill="#F5EDF4" transform="translate(433,195)"/>
<path d="M0 0 C2.97 0 5.94 0 9 0 C9.66 1.32 10.32 2.64 11 4 C10.71382813 4.83789062 10.42765625 5.67578125 10.1328125 6.5390625 C8.5114522 11.49259777 8.78821523 16.20129235 8.875 21.375 C8.88853516 22.90833984 8.88853516 22.90833984 8.90234375 24.47265625 C8.9257957 26.98201522 8.95861645 29.49088336 9 32 C9.66 32.33 10.32 32.66 11 33 C10.67 34.98 10.34 36.96 10 39 C6.40094092 38.44449305 5.00090201 37.25112752 2.75 34.4375 C2.22921875 33.79683594 1.7084375 33.15617187 1.171875 32.49609375 C0.78515625 32.00238281 0.3984375 31.50867188 0 31 C0.99 31 1.98 31 3 31 C2.99476318 30.410979 2.98952637 29.82195801 2.98413086 29.21508789 C2.96310197 26.49756983 2.95025854 23.78006899 2.9375 21.0625 C2.92912109 20.13630859 2.92074219 19.21011719 2.91210938 18.25585938 C2.89162214 12.41699697 3.24570213 6.79086947 4 1 C2.68 0.67 1.36 0.34 0 0 Z " fill="#637BB3" transform="translate(260,160)"/>
<path d="M0 0 C0.66 0.99 1.32 1.98 2 3 C3.98 2.67 5.96 2.34 8 2 C9.98908897 5.97817795 10.07636572 10.60897095 10 15 C7.82719517 19.44007944 4.23792437 21.25297363 0 23.49609375 C-2 24 -2 24 -4.25 23.09765625 C-4.8275 22.73542969 -5.405 22.37320313 -6 22 C-5.34 21.67 -4.68 21.34 -4 21 C-3.67 20.01 -3.34 19.02 -3 18 C-2.360625 17.443125 -1.72125 16.88625 -1.0625 16.3125 C1.82625688 13.07359077 2.15424589 10.22877055 3 6 C1.02 6.99 1.02 6.99 -1 8 C-1 4.88742431 -0.82638376 2.89234315 0 0 Z " fill="#C96C98" transform="translate(466,202)"/>
<path d="M0 0 C0 1.65 0 3.3 0 5 C-0.66 5.33 -1.32 5.66 -2 6 C-2 5.01 -2 4.02 -2 3 C-3.15227823 3.76116551 -4.2966386 4.53432693 -5.4375 5.3125 C-6.07558594 5.74175781 -6.71367187 6.17101562 -7.37109375 6.61328125 C-9.2885684 8.0034052 -9.2885684 8.0034052 -10 11 C-11.72544921 12.38712583 -13.54194318 13.52681613 -15.40625 14.71875 C-17.30299104 16.00689646 -17.30299104 16.00689646 -18 19 C-19.72895133 20.35180263 -21.54262209 21.46396412 -23.40625 22.62109375 C-25.43448636 24.108864 -25.43448636 24.108864 -26 28 C-16.76 28 -7.52 28 2 28 C-2.38548172 30.19274086 -4.55693528 30.23367512 -9.390625 30.1953125 C-10.09523865 30.1924826 -10.79985229 30.18965271 -11.52581787 30.18673706 C-13.7673876 30.17557801 -16.00855186 30.15048193 -18.25 30.125 C-19.77343171 30.11496464 -21.29686971 30.10583976 -22.8203125 30.09765625 C-26.54700586 30.07565291 -30.27346333 30.04115272 -34 30 C-30.88258667 26.25508488 -27.85495374 22.64938095 -24.0625 19.5625 C-21.25859427 17.18504381 -18.81495619 14.74140573 -16.4375 11.9375 C-6.2848301 0 -6.2848301 0 0 0 Z " fill="#317FB2" transform="translate(262,225)"/>
<path d="M0 0 C-0.33 1.0725 -0.66 2.145 -1 3.25 C-2.66781054 9.87392839 -2.96068231 17.41210743 -1 24 C-1.99 23.67 -2.98 23.34 -4 23 C-4.33 21.35 -4.66 19.7 -5 18 C-6.81298005 19.81298005 -6.67555005 22.61181698 -7.0625 25.0625 C-7.23910156 26.16722656 -7.41570312 27.27195313 -7.59765625 28.41015625 C-7.73042969 29.26480469 -7.86320312 30.11945313 -8 31 C-8.99 31.33 -9.98 31.66 -11 32 C-10.75636719 30.76636719 -10.75636719 30.76636719 -10.5078125 29.5078125 C-9.943559 25.61012297 -9.8531405 21.8024238 -9.875 17.875 C-9.87113281 17.17246094 -9.86726563 16.46992188 -9.86328125 15.74609375 C-9.86968686 12.35752363 -9.94290351 9.23840671 -11 6 C-9.54550599 4.9944239 -8.08627557 3.99569565 -6.625 3 C-5.40683594 2.1646875 -5.40683594 2.1646875 -4.1640625 1.3125 C-2 0 -2 0 0 0 Z " fill="#F7EAF2" transform="translate(384,206)"/>
<path d="M0 0 C0.66 0 1.32 0 2 0 C2.50731767 5.32683552 1.26718004 7.82526994 -2 12 C-3.29682374 13.36886951 -4.61823134 14.7169291 -6 16 C-5.01 16.66 -4.02 17.32 -3 18 C-5.78863007 19.39431504 -7.92078868 19.25660094 -11 19 C-13 16 -13 16 -12.8125 12.5625 C-12.03703201 9.16237111 -11.32086189 7.52267597 -9 5 C-8.34 5.66 -7.68 6.32 -7 7 C-6.01 7 -5.02 7 -4 7 C-3.71125 6.21625 -3.4225 5.4325 -3.125 4.625 C-2 2 -2 2 0 0 Z " fill="#C8739C" transform="translate(467,208)"/>
<path d="M0 0 C7.11905227 5.80683219 13.47374812 12.36285444 19.9375 18.875 C21.10979204 20.05231638 22.28231614 21.22940174 23.45507812 22.40625 C26.30606982 25.26817489 29.15389615 28.13321457 32 31 C27.47008204 36.43733055 22.65705784 41.46458931 17.625 46.4375 C16.88894531 47.16904297 16.15289062 47.90058594 15.39453125 48.65429688 C13.59863926 50.43852723 11.80044015 52.22036124 10 54 C9.34 53.34 8.68 52.68 8 52 C8.44730469 51.63648438 8.89460938 51.27296875 9.35546875 50.8984375 C12.3567608 48.40269357 14.99088434 46.01093879 17.5 43 C19.55766901 40.53079718 21.32466968 38.88688208 23.8125 36.9375 C26.64306108 34.67470181 26.64306108 34.67470181 27.4375 31.125 C27.293125 30.42375 27.14875 29.7225 27 29 C26.01 28.67 25.02 28.34 24 28 C23.67 27.01 23.34 26.02 23 25 C22.01 24.67 21.02 24.34 20 24 C19.67 23.01 19.34 22.02 19 21 C18.01 20.67 17.02 20.34 16 20 C15.67 19.01 15.34 18.02 15 17 C14.01 16.67 13.02 16.34 12 16 C11.67 15.01 11.34 14.02 11 13 C10.01 12.34 9.02 11.68 8 11 C8 10.34 8 9.68 8 9 C7.01 9 6.02 9 5 9 C3.95107762 7.36368108 2.95093297 5.69514137 2 4 C1.34 3.67 0.68 3.34 0 3 C0 2.01 0 1.02 0 0 Z " fill="#C27699" transform="translate(284,176)"/>
<path d="M0 0 C0.33 0 0.66 0 1 0 C1.05817667 8.92780972 0.90444363 17.82884373 0.5625 26.75 C0.52318359 27.92304688 0.48386719 29.09609375 0.44335938 30.3046875 C0.40146484 31.41585937 0.35957031 32.52703125 0.31640625 33.671875 C0.27974854 34.6731543 0.24309082 35.67443359 0.20532227 36.70605469 C0 39 0 39 -1 40 C-1.21199227 42.96200312 -1.37661226 45.90912442 -1.5 48.875 C-1.56900738 50.51839798 -1.64177379 52.1616435 -1.71875 53.8046875 C-1.74904297 54.53671387 -1.77933594 55.26874023 -1.81054688 56.02294922 C-2 58 -2 58 -3 61 C-3.14403348 62.33363703 -3.24590423 63.67218046 -3.31640625 65.01171875 C-3.35830078 65.76904297 -3.40019531 66.52636719 -3.44335938 67.30664062 C-3.48267578 68.09232422 -3.52199219 68.87800781 -3.5625 69.6875 C-3.60568359 70.48478516 -3.64886719 71.28207031 -3.69335938 72.10351562 C-3.79927368 74.06881447 -3.90012551 76.03438496 -4 78 C-6.38963116 74.30128156 -6.10214979 71.41322229 -5.78515625 67.09765625 C-5.73400162 66.37353043 -5.68284698 65.6494046 -5.63014221 64.90333557 C-5.43648618 62.26736051 -5.22015558 59.6338948 -5 57 C-4.91143738 55.92852722 -4.82287476 54.85705444 -4.73162842 53.75311279 C-3.99946034 44.97831743 -3.22102302 36.20783248 -2.4375 27.4375 C-2.20066156 24.76892533 -1.96457964 22.1002839 -1.72851562 19.43164062 C-1.15495724 12.95419295 -0.57860399 6.47699882 0 0 Z " fill="#C5E5F5" transform="translate(199,130)"/>
<path d="M0 0 C0.33 0 0.66 0 1 0 C1.08040527 1.09650879 1.16081055 2.19301758 1.24365234 3.32275391 C1.61841109 8.42367782 1.99620027 13.52437471 2.375 18.625 C2.4428067 19.53926758 2.5106134 20.45353516 2.58047485 21.39550781 C3.4267728 32.77480966 4.29115965 44.14885492 5.44091797 55.50244141 C5.91856159 60.36208004 6.07215154 65.11589581 6 70 C5.67 70 5.34 70 5 70 C1.31974413 46.66717779 -0.4150876 23.62487067 0 0 Z " fill="#CDE9F8" transform="translate(45,176)"/>
<path d="M0 0 C0.33 0 0.66 0 1 0 C1.11894215 9.84576707 0.96730139 19.66109878 0.5625 29.5 C0.52326416 30.52101807 0.48402832 31.54203613 0.44360352 32.59399414 C0.40162842 33.54266357 0.35965332 34.49133301 0.31640625 35.46875 C0.27974854 36.31888672 0.24309082 37.16902344 0.20532227 38.04492188 C0 40 0 40 -1 41 C-1.23701239 43.85877909 -1.42219182 46.69883297 -1.5625 49.5625 C-1.60568359 50.36880859 -1.64886719 51.17511719 -1.69335938 52.00585938 C-1.79975262 54.00368805 -1.90040888 56.0018207 -2 58 C-2.99 58.495 -2.99 58.495 -4 59 C-3.4064616 39.26996486 -1.73518722 19.655117 0 0 Z " fill="#C7E6F5" transform="translate(191,220)"/>
<path d="M0 0 C3 1 3 1 5 2 C4.44271087 5.34373475 3.64826111 8.03312999 2 11 C0.68 10.34 -0.64 9.68 -2 9 C-3.65 10.65 -5.3 12.3 -7 14 C-7 13.01 -7 12.02 -7 11 C-8.65 11.66 -10.3 12.32 -12 13 C-8.19524578 8.43969176 -4.25030379 4.14910608 0 0 Z " fill="#7A77AD" transform="translate(269,214)"/>
<path d="M0 0 C0.66 0.33 1.32 0.66 2 1 C0.92837407 3.58875926 -0.1565938 6.17045395 -1.25 8.75 C-1.70052734 9.84441406 -1.70052734 9.84441406 -2.16015625 10.9609375 C-3.91220059 15.06146681 -5.50935591 18.06538771 -9 21 C-8.51679152 14.7945858 -7.66681876 9.00054754 -6 3 C-5.34 3.66 -4.68 4.32 -4 5 C-3.566875 4.0409375 -3.566875 4.0409375 -3.125 3.0625 C-2 1 -2 1 0 0 Z " fill="#F9E2F2" transform="translate(422,203)"/>
<path d="M0 0 C0.99 0.33 1.98 0.66 3 1 C-3.27 7.27 -9.54 13.54 -16 20 C-17 16 -17 16 -16 13 C-14.02 13.495 -14.02 13.495 -12 14 C-12 13.01 -12 12.02 -12 11 C-11.01 11 -10.02 11 -9 11 C-8.67 9.68 -8.34 8.36 -8 7 C-6.68 6.67 -5.36 6.34 -4 6 C-3.67 4.68 -3.34 3.36 -3 2 C-2.01 2 -1.02 2 0 2 C0 1.34 0 0.68 0 0 Z " fill="#D5E0EE" transform="translate(269,211)"/>
<path d="M0 0 C0.33 0.99 0.66 1.98 1 3 C0.0925 3.70125 -0.815 4.4025 -1.75 5.125 C-4.86940221 7.70253422 -6.7891835 10.61008136 -9 14 C-12.4 17 -12.4 17 -15 17 C-15.33 17.99 -15.66 18.98 -16 20 C-17.62332967 21.38576923 -19.28724465 22.72641268 -21 24 C-21.66 23.67 -22.32 23.34 -23 23 C-15.41 15.41 -7.82 7.82 0 0 Z " fill="#FBE2EE" transform="translate(309,214)"/>
<path d="M0 0 C0.66 0 1.32 0 2 0 C2.37076301 3.89301165 2.10260771 5.80577827 0.25 9.3125 C-2 12 -2 12 -4.25 12.875 C-4.8275 12.91625 -5.405 12.9575 -6 13 C-5.60791281 7.64147506 -3.6642613 3.85831875 0 0 Z " fill="#F9E7F5" transform="translate(467,208)"/>
<path d="M0 0 C0 1.65 0 3.3 0 5 C-0.99 5.495 -0.99 5.495 -2 6 C-2 5.01 -2 4.02 -2 3 C-3.15227823 3.76116551 -4.2966386 4.53432693 -5.4375 5.3125 C-6.07558594 5.74175781 -6.71367187 6.17101562 -7.37109375 6.61328125 C-9.2885684 8.0034052 -9.2885684 8.0034052 -10 11 C-11.84765625 12.60546875 -11.84765625 12.60546875 -14.0625 14.1875 C-14.79597656 14.71730469 -15.52945313 15.24710938 -16.28515625 15.79296875 C-16.85105469 16.19128906 -17.41695312 16.58960938 -18 17 C-18.66 16.67 -19.32 16.34 -20 16 C-6.63959391 0 -6.63959391 0 0 0 Z " fill="#3E82BA" transform="translate(262,225)"/>
<path d="M0 0 C0.66 0 1.32 0 2 0 C2.4125 0.433125 2.825 0.86625 3.25 1.3125 C5.55296316 3.53321447 8.11842417 4.65526461 11 6 C11 7.98 11 9.96 11 12 C6.96372972 10.16533169 3.78219507 8.5035049 1 5 C0.25 2.25 0.25 2.25 0 0 Z " fill="#C47099" transform="translate(369,165)"/>
<path d="M0 0 C2.52076559 2.52076559 2.36083861 3.66187567 2.6328125 7.1640625 C2.71660156 8.20433594 2.80039062 9.24460937 2.88671875 10.31640625 C2.96535156 11.40824219 3.04398438 12.50007813 3.125 13.625 C3.21136719 14.69363281 3.29773437 15.76226562 3.38671875 16.86328125 C3.83073666 22.59322666 4.09739664 28.25359814 4 34 C1.53283162 30.1943678 1.59748027 26.20220259 1.4375 21.8125 C1.6677653 17.02319196 1.6677653 17.02319196 0 13 C-0.07258946 10.81360547 -0.08373783 8.62499611 -0.0625 6.4375 C-0.05347656 5.23996094 -0.04445312 4.04242188 -0.03515625 2.80859375 C-0.02355469 1.88175781 -0.01195312 0.95492187 0 0 Z " fill="#C0E0F4" transform="translate(39,114)"/>
<path d="M0 0 C2.31 0 4.62 0 7 0 C7 4 7 4 5.79296875 5.73828125 C3.48246219 7.36419327 2.10891289 7.30908317 -0.6875 7.1875 C-1.49574219 7.16042969 -2.30398438 7.13335937 -3.13671875 7.10546875 C-3.75160156 7.07066406 -4.36648438 7.03585938 -5 7 C-2.35261084 5.5393715 -1.10551666 5 2 5 C2 4.34 2 3.68 2 3 C1.01 2.67 0.02 2.34 -1 2 C-0.67 1.34 -0.34 0.68 0 0 Z " fill="#727BAE" transform="translate(265,248)"/>
<path d="M0 0 C0.66 0.33 1.32 0.66 2 1 C0.41332422 4.90285767 -2.13350481 7.33520982 -5.125 10.25 C-6.03507813 11.14203125 -6.94515625 12.0340625 -7.8828125 12.953125 C-8.58148438 13.62859375 -9.28015625 14.3040625 -10 15 C-10.578125 13.109375 -10.578125 13.109375 -11 11 C-9.75 9.25 -9.75 9.25 -8 8 C-7.01 8 -6.02 8 -5 8 C-4.9175 7.38125 -4.835 6.7625 -4.75 6.125 C-4 4 -4 4 -1.9375 2.75 C-1.298125 2.5025 -0.65875 2.255 0 2 C0 1.34 0 0.68 0 0 Z " fill="#CAE5F1" transform="translate(246,233)"/>
<path d="M0 0 C0.99 0.33 1.98 0.66 3 1 C2.52797514 5.24822374 0.03344482 7.19989709 -3 10 C-3 9.01 -3 8.02 -3 7 C-4.65 7.66 -6.3 8.32 -8 9 C-7.04270084 7.87411986 -6.08412105 6.7493285 -5.125 5.625 C-4.59132813 4.99851563 -4.05765625 4.37203125 -3.5078125 3.7265625 C-2.38567993 2.44163349 -1.20628025 1.20628025 0 0 Z " fill="#5A7EB2" transform="translate(265,218)"/>
<path d="M0 0 C0 0.66 0 1.32 0 2 C-3.50575238 4.01078066 -6.99930785 4.79280998 -10.9375 5.625 C-12.14277344 5.88539063 -13.34804687 6.14578125 -14.58984375 6.4140625 C-17.49407549 6.91307139 -20.06720235 7.12243178 -23 7 C-19.18786401 4.86998146 -15.08792756 3.66010088 -10.9375 2.375 C-10.21755859 2.14554687 -9.49761719 1.91609375 -8.75585938 1.6796875 C-5.73506798 0.7372679 -3.18325133 0 0 0 Z " fill="#CFEBF8" transform="translate(187,279)"/>
<path d="M0 0 C0 4.26410686 -2.33320143 5.79984172 -5 9 C-5 9.99 -5 10.98 -5 12 C-7.76264289 12.59732819 -10.16032769 13 -13 13 C-8.71 8.71 -4.42 4.42 0 0 Z " fill="#F2E7F8" transform="translate(285,238)"/>
<path d="M0 0 C3.37462715 0.54723683 5.08235 1.0549 8 3 C8 3.66 8 4.32 8 5 C3.66726186 5.92844389 0.33273814 5.92844389 -4 5 C-2.68 4.67 -1.36 4.34 0 4 C0 2.68 0 1.36 0 0 Z " fill="#C46C95" transform="translate(500,197)"/>
<path d="M0 0 C10.23 0 20.46 0 31 0 C31 0.33 31 0.66 31 1 C22.09 1 13.18 1 4 1 C3.67 1.99 3.34 2.98 3 4 C2.01 2.68 1.02 1.36 0 0 Z " fill="#337BAD" transform="translate(229,160)"/>
<path d="M0 0 C2.09715785 3.14573677 2.52004559 5.01456251 3.125 8.6875 C3.29257812 9.68136719 3.46015625 10.67523438 3.6328125 11.69921875 C3.75398438 12.45847656 3.87515625 13.21773437 4 14 C4.99 14.33 5.98 14.66 7 15 C4.625 14.6875 4.625 14.6875 2 14 C-0.08557757 10.87163364 -0.36393593 9.51376966 -0.6875 5.875 C-0.77386719 4.98554688 -0.86023438 4.09609375 -0.94921875 3.1796875 C-0.96597656 2.46039063 -0.98273438 1.74109375 -1 1 C-0.67 0.67 -0.34 0.34 0 0 Z " fill="#CB7EA3" transform="translate(404,221)"/>
<path d="M0 0 C0.80981029 2.32627033 1.16865034 3.54809162 0.29296875 5.89453125 C-0.07183594 6.52746094 -0.43664062 7.16039062 -0.8125 7.8125 C-2.81092636 11.49817907 -3.98466823 14.93867291 -5 19 C-5.99 19 -6.98 19 -8 19 C-6.60121198 14.53202662 -4.86369228 10.36177921 -2.875 6.125 C-2.33617187 4.97257813 -1.79734375 3.82015625 -1.2421875 2.6328125 C-0.62730469 1.32957031 -0.62730469 1.32957031 0 0 Z " fill="#F9E1EF" transform="translate(429,205)"/>
<path d="M0 0 C0.33 0 0.66 0 1 0 C1.33 3.3 1.66 6.6 2 10 C2.99 9.67 3.98 9.34 5 9 C4.34 10.65 3.68 12.3 3 14 C2.01 14 1.02 14 0 14 C-0.99293628 11.02119115 -1.13406411 8.98398802 -1.125 5.875 C-1.12757813 4.98554688 -1.13015625 4.09609375 -1.1328125 3.1796875 C-1 1 -1 1 0 0 Z " fill="#F9D8EB" transform="translate(392,213)"/>
<path d="M0 0 C2 2 2 2 2.1953125 4.6015625 C2.17210937 5.59929687 2.14890625 6.59703125 2.125 7.625 C2.10695313 8.62789062 2.08890625 9.63078125 2.0703125 10.6640625 C2.03550781 11.82035156 2.03550781 11.82035156 2 13 C1.67 13 1.34 13 1 13 C0.67 10.36 0.34 7.72 0 5 C-0.556875 5.144375 -1.11375 5.28875 -1.6875 5.4375 C-4.11384195 6.02769128 -6.54906345 6.523429 -9 7 C-6.24479785 4.04070881 -3.53372712 1.96318174 0 0 Z " fill="#F1D2E7" transform="translate(366,215)"/>
<path d="M0 0 C0.33 0 0.66 0 1 0 C1.33 2.31 1.66 4.62 2 7 C3.216875 6.690625 4.43375 6.38125 5.6875 6.0625 C8.7782972 5.28842823 11.86734334 4.58737312 15 4 C11.99649263 7.47774537 8.86825087 8.82620922 4.3125 9.25 C2 9 2 9 0 7 C-0.125 3.375 -0.125 3.375 0 0 Z " fill="#F8DCED" transform="translate(343,237)"/>
<path d="M0 0 C0.33 0.99 0.66 1.98 1 3 C1.804375 2.835 2.60875 2.67 3.4375 2.5 C7.65887352 1.90752652 11.74664545 1.91493291 16 2 C12.72698081 4.96909598 10.61934238 5.34354794 6.25 5.1875 C4.77273438 5.14689453 4.77273438 5.14689453 3.265625 5.10546875 C2.14414062 5.05326172 2.14414062 5.05326172 1 5 C0.67 3.35 0.34 1.7 0 0 Z " fill="#BF7698" transform="translate(426,228)"/>
<path d="M0 0 C0.66 0 1.32 0 2 0 C2.33 2.31 2.66 4.62 3 7 C2.34 7 1.68 7 1 7 C0.34 8.32 -0.32 9.64 -1 11 C-1.66 10.67 -2.32 10.34 -3 10 C-2.01 6.7 -1.02 3.4 0 0 Z " fill="#F7DBED" transform="translate(433,195)"/>
<path d="M0 0 C0.99 0.66 1.98 1.32 3 2 C2.34 2.66 1.68 3.32 1 4 C0.7525 4.825 0.505 5.65 0.25 6.5 C-0.1625 7.325 -0.575 8.15 -1 9 C-2.98 9.66 -4.96 10.32 -7 11 C-4.69 7.37 -2.38 3.74 0 0 Z " fill="#F3E0F0" transform="translate(372,238)"/>
<path d="M0 0 C0.66 0 1.32 0 2 0 C2.9765625 6.0546875 2.9765625 6.0546875 3 8 C2.34 8.66 1.68 9.32 1 10 C0.67 9.01 0.34 8.02 0 7 C-1.98 7.99 -1.98 7.99 -4 9 C-2.68 6.03 -1.36 3.06 0 0 Z " fill="#F9D9EB" transform="translate(459,189)"/>
<path d="M0 0 C-6.03076923 4.06153846 -6.03076923 4.06153846 -10.9375 3.75 C-11.948125 3.5025 -12.95875 3.255 -14 3 C-9.7368213 0.15788087 -5.03577274 -2.0143091 0 0 Z " fill="#CEE7F6" transform="translate(164,287)"/>
<path d="M0 0 C0.66 0 1.32 0 2 0 C0.68326091 5.66197809 -1.40589263 7.74584061 -6 11 C-6.66 11 -7.32 11 -8 11 C-8 10.34 -8 9.68 -8 9 C-7.236875 8.401875 -6.47375 7.80375 -5.6875 7.1875 C-2.96390275 4.97061852 -1.74467159 2.99086558 0 0 Z " fill="#F8CCEB" transform="translate(441,217)"/>
<path d="M0 0 C0.33 0 0.66 0 1 0 C1.36923077 6.4 1.36923077 6.4 -0.5 9.4375 C-0.995 9.953125 -1.49 10.46875 -2 11 C-2.99 10.67 -3.98 10.34 -5 10 C-3.35 6.7 -1.7 3.4 0 0 Z " fill="#F9E4F2" transform="translate(403,224)"/>
<path d="M0 0 C2.125 0.9375 2.125 0.9375 4 2 C4 2.66 4 3.32 4 4 C-1.75 7 -1.75 7 -4 7 C-4 5 -4 5 -2 3 C-2 2.34 -2 1.68 -2 1 C-1.34 0.67 -0.68 0.34 0 0 Z " fill="#F6DDED" transform="translate(358,208)"/>
<path d="M0 0 C0.33 0 0.66 0 1 0 C1 5.61 1 11.22 1 17 C0.01 17.33 -0.98 17.66 -2 18 C-1.34 12.06 -0.68 6.12 0 0 Z " fill="#F6D2E6" transform="translate(375,220)"/>
<path d="M0 0 C1.17539996 0.92652701 2.34010577 1.86663387 3.5 2.8125 C4.1496875 3.33457031 4.799375 3.85664063 5.46875 4.39453125 C7 6 7 6 7 9 C6.34 9 5.68 9 5 9 C4.67 9.66 4.34 10.32 4 11 C3.896875 10.071875 3.79375 9.14375 3.6875 8.1875 C2.97429072 4.88080243 2.44405178 4.12526242 0 2 C0 1.34 0 0.68 0 0 Z " fill="#917EA4" transform="translate(271,163)"/>
<path d="M0 0 C2.31 0 4.62 0 7 0 C3.99559979 2.00293347 2.29006055 2.49271626 -1.1875 3.125 C-2.53908203 3.37636719 -2.53908203 3.37636719 -3.91796875 3.6328125 C-4.60503906 3.75398438 -5.29210937 3.87515625 -6 4 C-6 3.01 -6 2.02 -6 1 C-3.03 1.495 -3.03 1.495 0 2 C0 1.34 0 0.68 0 0 Z " fill="#2571A9" transform="translate(142,289)"/>
<path d="M0 0 C2.97 0 5.94 0 9 0 C6.14521674 1.90318884 4.58058692 2.4619099 1.3125 3.125 C0.50425781 3.29257812 -0.30398437 3.46015625 -1.13671875 3.6328125 C-1.75160156 3.75398438 -2.36648437 3.87515625 -3 4 C-2.67 3.34 -2.34 2.68 -2 2 C-1.34 2 -0.68 2 0 2 C0 1.34 0 0.68 0 0 Z " fill="#2E74AD" transform="translate(168,281)"/>
<path d="M0 0 C0.66 0.33 1.32 0.66 2 1 C0.63016497 4.16115776 0.0109362 4.9927092 -3 7 C-3.99 6.67 -4.98 6.34 -6 6 C-4.02 4.02 -2.04 2.04 0 0 Z " fill="#C07996" transform="translate(513,221)"/>
<path d="M0 0 C2.64 1.65 5.28 3.3 8 5 C6.02 5.99 6.02 5.99 4 7 C2 5.1875 2 5.1875 0 3 C0 2.01 0 1.02 0 0 Z " fill="#F3DDE6" transform="translate(347,200)"/>
<path d="M0 0 C0.66 0 1.32 0 2 0 C1.55005243 1.79379098 1.08975857 3.58498928 0.625 5.375 C0.36976563 6.37273437 0.11453125 7.37046875 -0.1484375 8.3984375 C-1 11 -1 11 -3 13 C-2.343621 8.51474352 -1.29925791 4.33085971 0 0 Z " fill="#FBE1F1" transform="translate(403,201)"/>
<path d="M0 0 C2 0 2 0 3.375 1.3125 C3.91125 1.869375 4.4475 2.42625 5 3 C6.31963709 4.01800576 7.65009646 5.02248365 9 6 C6.03 5.505 6.03 5.505 3 5 C2.67 5.66 2.34 6.32 2 7 C0.5393715 4.35261084 0 3.10551666 0 0 Z " fill="#C3819F" transform="translate(369,165)"/>
<path d="M0 0 C0.33 0 0.66 0 1 0 C1.125 2.375 1.125 2.375 1 5 C0.34 5.66 -0.32 6.32 -1 7 C-1.45811675 8.97235333 -1.45811675 8.97235333 -1.625 11.125 C-1.74875 12.40375 -1.8725 13.6825 -2 15 C-2.33 15 -2.66 15 -3 15 C-3.35050464 9.158256 -3.16727335 5.1468192 0 0 Z " fill="#FADAEF" transform="translate(342,161)"/>
<path d="M0 0 C0.99 0.66 1.98 1.32 3 2 C2.34 4.64 1.68 7.28 1 10 C0 8 -1 6 -2 4 C-1.0625 1.875 -1.0625 1.875 0 0 Z " fill="#747CB2" transform="translate(268,160)"/>
<path d="M0 0 C0 0.99 0 1.98 0 3 C-3.50776784 4.60355101 -6.14354879 5.22036864 -10 5 C-7.90217213 2.90217213 -6.6200793 2.3490604 -3.875 1.375 C-3.15054688 1.11460937 -2.42609375 0.85421875 -1.6796875 0.5859375 C-0.84824219 0.29589844 -0.84824219 0.29589844 0 0 Z " fill="#348BBA" transform="translate(158,174)"/>
<path d="M0 0 C0 2 0 2 -1.125 3.6875 C-3 5 -3 5 -6.1875 4.6875 C-7.115625 4.460625 -8.04375 4.23375 -9 4 C-8 2 -8 2 -5.0625 0.875 C-2 0 -2 0 0 0 Z " fill="#2F8BB9" transform="translate(134,259)"/>
<path d="M0 0 C-2.97 2.475 -2.97 2.475 -6 5 C-6.66 3.68 -7.32 2.36 -8 1 C-3.375 -1.125 -3.375 -1.125 0 0 Z " fill="#F5E1EA" transform="translate(341,225)"/>
<path d="M0 0 C1.32 1.65 2.64 3.3 4 5 C3.34 6.32 2.68 7.64 2 9 C1.34 9 0.68 9 0 9 C0 6.03 0 3.06 0 0 Z " fill="#1E6EAE" transform="translate(49,212)"/>
<path d="M0 0 C2.475 0.495 2.475 0.495 5 1 C5.80967438 3.91482778 6.21845993 5.46113217 5.0625 8.3125 C4.5365625 9.1478125 4.5365625 9.1478125 4 10 C3.34 10 2.68 10 2 10 C2.66 7.36 3.32 4.72 4 2 C2.68 2 1.36 2 0 2 C0 1.34 0 0.68 0 0 Z " fill="#C67BA1" transform="translate(403,191)"/>
<path d="M0 0 C0 0.66 0 1.32 0 2 C-3.85756507 4.15305957 -6.55129785 5.39253254 -11 5 C-3.5 0 -3.5 0 0 0 Z " fill="#CFECF8" transform="translate(98,179)"/>
<path d="M0 0 C0.66 0 1.32 0 2 0 C2.125 2.875 2.125 2.875 2 6 C1.34 6.66 0.68 7.32 0 8 C0 6.68 0 5.36 0 4 C-0.66 4 -1.32 4 -2 4 C-1.34 2.68 -0.68 1.36 0 0 Z " fill="#FAD5EE" transform="translate(467,208)"/>
<path d="M0 0 C0.5625 1.9375 0.5625 1.9375 1 4 C0.67 4.33 0.34 4.66 0 5 C-0.36760731 7.32817964 -0.70241581 9.6618385 -1 12 C-2.53224072 9.56644121 -3.03344238 8.34278436 -2.75 5.4375 C-2 3 -2 3 0 0 Z " fill="#F7D8EC" transform="translate(452,202)"/>
<path d="M0 0 C2.31 1.98 4.62 3.96 7 6 C6.34 6.66 5.68 7.32 5 8 C4.67 7.01 4.34 6.02 4 5 C1.98491642 4.26676204 1.98491642 4.26676204 0 4 C0 2.68 0 1.36 0 0 Z " fill="#CAE0F0" transform="translate(252,184)"/>
<path d="M0 0 C0.66 0.33 1.32 0.66 2 1 C-1.96 4.465 -1.96 4.465 -6 8 C-6.66 7.67 -7.32 7.34 -8 7 C-5.36 4.69 -2.72 2.38 0 0 Z " fill="#F9E2F2" transform="translate(357,145)"/>
<path d="M0 0 C0.33 1.32 0.66 2.64 1 4 C-1.97 6.475 -1.97 6.475 -5 9 C-5.66 8.67 -6.32 8.34 -7 8 C-4.69 5.36 -2.38 2.72 0 0 Z " fill="#368EBD" transform="translate(249,233)"/>
<path d="M0 0 C-0.33 1.65 -0.66 3.3 -1 5 C-3.31 5 -5.62 5 -8 5 C-3.22727273 0 -3.22727273 0 0 0 Z " fill="#F3CAE0" transform="translate(384,206)"/>
<path d="M0 0 C0.33 1.65 0.66 3.3 1 5 C-0.32 5 -1.64 5 -3 5 C-3 4.01 -3 3.02 -3 2 C-3.66 1.67 -4.32 1.34 -5 1 C-3 0 -3 0 0 0 Z " fill="#C9699A" transform="translate(512,203)"/>
<path d="M0 0 C0.99 0.33 1.98 0.66 3 1 C-0.465 3.97 -0.465 3.97 -4 7 C-3.04065919 3.16263678 -2.76390737 2.40339772 0 0 Z " fill="#FCE6F4" transform="translate(341,139)"/>
<path d="M0 0 C4.95 0.99 4.95 0.99 10 2 C9.67 2.66 9.34 3.32 9 4 C5.85262818 3.30058404 2.97411124 2.23921302 0 1 C0 0.67 0 0.34 0 0 Z " fill="#D4EEFA" transform="translate(95,291)"/>
<path d="M0 0 C2.5722047 1.28610235 3.00974907 2.33393981 4 5 C3.625 7.25 3.625 7.25 3 9 C0.9375 6.1875 0.9375 6.1875 -1 3 C-0.67 2.01 -0.34 1.02 0 0 Z " fill="#FAE6F2" transform="translate(513,201)"/>
<path d="M0 0 C-2.05233685 2.2477975 -3.00667261 3.0022242 -6 4 C-6 2.68 -6 1.36 -6 0 C-3 -1 -3 -1 0 0 Z " fill="#F6E4EE" transform="translate(390,195)"/>
</svg>
